<svg width="499" height="607" viewBox="0 0 499 607" fill="none" xmlns="http://www.w3.org/2000/svg">
<path d="M0 0H498.954V606.631H0V0Z" fill="#504A5E"/>
<circle cx="244.927" cy="584.64" r="0.758288" fill="#F0E8DB"/>
<path d="M418.575 565.114H423.125M427.675 565.114H423.125M423.125 565.114V561.133V570.233" stroke="#FAF1D9"/>
<circle cx="264.643" cy="599.806" r="0.758288" fill="#F0E8DB"/>
<circle cx="379.902" cy="599.806" r="0.758288" fill="#F0E8DB"/>
<circle cx="69.0044" cy="575.541" r="0.758288" fill="#F0E8DB"/>
<circle cx="293.458" cy="580.09" r="0.758288" fill="#F0E8DB"/>
<circle cx="184.264" cy="586.157" r="0.758288" fill="#F0E8DB"/>
<path d="M209.287 574.247C211.714 574.247 212.32 571.571 212.32 570.233C212.32 573.087 214.342 574.099 215.353 574.247C212.927 574.247 212.32 576.626 212.32 577.816C212.32 574.961 210.298 574.247 209.287 574.247Z" stroke="#F0E8DB" stroke-linecap="round" stroke-linejoin="round"/>
<circle cx="458.765" cy="575.541" r="0.758288" fill="#F0E8DB"/>
<circle cx="486.062" cy="540.659" r="0.758288" fill="#F0E8DB"/>
<path d="M15.1655 528.75C17.592 528.75 18.1987 526.074 18.1987 524.735C18.1987 527.59 20.2208 528.601 21.2318 528.75C18.8053 528.75 18.1987 531.129 18.1987 532.318C18.1987 529.464 16.1766 528.75 15.1655 528.75Z" stroke="#F0E8DB" stroke-linecap="round" stroke-linejoin="round"/>
<path d="M483.788 458.987C486.215 458.987 486.821 456.311 486.821 454.973C486.821 457.828 488.843 458.839 489.854 458.987C487.428 458.987 486.821 461.366 486.821 462.556C486.821 459.701 484.799 458.987 483.788 458.987Z" stroke="#F0E8DB" stroke-linecap="round" stroke-linejoin="round"/>
<circle cx="18.9575" cy="220.662" r="0.758288" fill="#F0E8DB"/>
<circle cx="153.933" cy="72.0374" r="0.758288" fill="#F0E8DB"/>
<circle cx="18.9575" cy="220.662" r="0.758288" fill="#F0E8DB"/>
<circle cx="147.866" cy="23.5069" r="0.758288" fill="#F0E8DB"/>
<circle cx="345.021" cy="67.4876" r="0.758288" fill="#F0E8DB"/>
<circle cx="338.955" cy="20.4738" r="0.758288" fill="#F0E8DB"/>
<circle cx="355.637" cy="40.1893" r="0.758288" fill="#F0E8DB"/>
<circle cx="420.85" cy="119.051" r="0.758288" fill="#F0E8DB"/>
<circle cx="476.963" cy="437.532" r="0.758288" fill="#F0E8DB"/>
<circle cx="467.864" cy="363.22" r="0.758288" fill="#F0E8DB"/>
<circle cx="486.062" cy="326.822" r="0.758288" fill="#F0E8DB"/>
<circle cx="479.997" cy="252.51" r="0.758288" fill="#F0E8DB"/>
<circle cx="461.797" cy="308.623" r="0.758288" fill="#F0E8DB"/>
<circle cx="395.068" cy="62.9379" r="0.758288" fill="#F0E8DB"/>
<circle cx="90.2363" cy="58.3882" r="0.758288" fill="#F0E8DB"/>
<circle cx="84.1699" cy="119.051" r="0.758288" fill="#F0E8DB"/>
<circle cx="29.5737" cy="382.936" r="0.758288" fill="#F0E8DB"/>
<circle cx="15.9238" cy="549.759" r="0.758288" fill="#F0E8DB"/>
<circle cx="34.123" cy="516.394" r="0.758288" fill="#F0E8DB"/>
<circle cx="14.4072" cy="446.632" r="0.758288" fill="#F0E8DB"/>
<path d="M79.6205 24.2652L80.0261 29.015L84.6687 27.933L80.2768 29.7865L82.7405 33.8675L79.6205 30.2633L76.5005 33.8675L78.9642 29.7865L74.5723 27.933L79.2149 29.015L79.6205 24.2652Z" fill="#FAF1D9"/>
<path d="M477.721 24.2652L477.953 26.9794L480.606 26.3611L478.096 27.4202L479.504 29.7523L477.721 27.6927L475.938 29.7523L477.346 27.4202L474.836 26.3611L477.489 26.9794L477.721 24.2652Z" fill="#FAF1D9"/>
<path d="M12.1328 120.568H18.1991M24.2654 120.568H18.1991M18.1991 120.568V115.26V127.392" stroke="#FAF1D9"/>
<path d="M459.522 404.168H465.589M471.655 404.168H465.589M465.589 404.168V398.86V410.992" stroke="#FAF1D9"/>
<path d="M54.5967 552.318H58.3881M62.1796 552.318H58.3881M58.3881 552.318V549.001V556.583" stroke="#FAF1D9"/>
<path d="M27.2983 236.017H31.8481M36.3978 236.017H31.8481M31.8481 236.017V232.036V241.136" stroke="#FAF1D9"/>
<path d="M166.823 49.4783H171.373M175.923 49.4783H171.373M171.373 49.4783V45.4973V54.5968" stroke="#FAF1D9"/>
<path d="M304.832 28.2462H309.381M313.931 28.2462H309.381M309.381 28.2462V24.2652V33.3647" stroke="#FAF1D9"/>
<path d="M407.959 38.6727C412.205 38.6727 413.267 34.123 413.267 31.8481C413.267 36.7012 416.806 38.4199 418.575 38.6727C414.329 38.6727 413.267 42.7169 413.267 44.739C413.267 39.886 409.728 38.6727 407.959 38.6727Z" stroke="#F0E8DB" stroke-linecap="round" stroke-linejoin="round"/>
<path d="M47.0137 208.517C62.6424 93.5999 190.869 67.1439 253.029 68.2805C407.895 74.4185 450.164 164.329 451.94 208.517V488.991C451.94 534.048 420.05 559.456 398.068 558.044H107.989C52.1048 557.362 47.0137 517.11 47.0137 495.811V208.517Z" stroke="#F0E8DB" stroke-linecap="round" stroke-linejoin="round"/>
<path d="M50.9136 51.7803L53.0801 60.4464" stroke="#F0E8DB" stroke-linecap="round" stroke-linejoin="round"/>
<path d="M61.7464 53.9468C59.5799 53.9468 58.5869 67.876 58.3612 74.8406C49.695 74.3182 42.5635 76.7993 40.0811 78.1052C44.9558 80.7169 54.299 81.8051 58.3612 82.0228C58.3226 88.8132 60.6019 97.9107 61.7464 101.611C63.913 98.4766 64.906 86.8109 65.1316 81.3698C75.4227 81.3698 81.6064 79.1934 83.4118 78.1052C80.7036 74.9711 70.0966 74.6229 65.1316 74.8406C64.59 58.1256 62.6491 53.9468 61.7464 53.9468Z" stroke="#F0E8DB" stroke-linecap="round" stroke-linejoin="round"/>
<path d="M35.7476 51.7803L46.5802 62.613" stroke="#F0E8DB" stroke-linecap="round" stroke-linejoin="round"/>
<path d="M33.5815 64.7795L42.2477 71.2791" stroke="#F0E8DB" stroke-linecap="round" stroke-linejoin="round"/>
<path d="M22.749 79.9453H35.7482" stroke="#F0E8DB" stroke-linecap="round" stroke-linejoin="round"/>
<path d="M33.5815 90.778L42.2477 84.2784" stroke="#F0E8DB" stroke-linecap="round" stroke-linejoin="round"/>
<path d="M35.7476 103.777L46.5802 92.9445" stroke="#F0E8DB" stroke-linecap="round" stroke-linejoin="round"/>
<path d="M50.9136 105.944L53.0801 95.1111" stroke="#F0E8DB" stroke-linecap="round" stroke-linejoin="round"/>
<path d="M61.7461 105.944V116.776" stroke="#F0E8DB" stroke-linecap="round" stroke-linejoin="round"/>
<path d="M68.2461 95.1111L72.5792 105.944" stroke="#F0E8DB" stroke-linecap="round" stroke-linejoin="round"/>
<path d="M74.7456 92.9445L87.7448 103.777" stroke="#F0E8DB" stroke-linecap="round" stroke-linejoin="round"/>
<path d="M79.0791 84.2784L87.7453 90.778" stroke="#F0E8DB" stroke-linecap="round" stroke-linejoin="round"/>
<path d="M85.5786 79.9453H98.5778" stroke="#F0E8DB" stroke-linecap="round" stroke-linejoin="round"/>
<path d="M79.0791 71.2791L87.7453 64.7795" stroke="#F0E8DB" stroke-linecap="round" stroke-linejoin="round"/>
<path d="M74.7456 62.613L85.5783 51.7803" stroke="#F0E8DB" stroke-linecap="round" stroke-linejoin="round"/>
<path d="M68.2461 60.4464L72.5792 51.7803" stroke="#F0E8DB" stroke-linecap="round" stroke-linejoin="round"/>
<path d="M61.7461 40.9476V49.6137" stroke="#F0E8DB" stroke-linecap="round" stroke-linejoin="round"/>
<path d="M433.09 51.7803L435.257 60.4464" stroke="#F0E8DB" stroke-linecap="round" stroke-linejoin="round"/>
<path d="M443.924 53.9468C441.757 53.9468 440.764 67.876 440.538 74.8406C431.872 74.3182 424.741 76.7993 422.258 78.1052C427.133 80.7169 436.476 81.8051 440.538 82.0228C440.5 88.8132 442.779 97.9107 443.924 101.611C446.09 98.4766 447.083 86.8109 447.309 81.3698C457.6 81.3698 463.784 79.1934 465.589 78.1052C462.881 74.9711 452.274 74.6229 447.309 74.8406C446.767 58.1256 444.826 53.9468 443.924 53.9468Z" stroke="#F0E8DB" stroke-linecap="round" stroke-linejoin="round"/>
<path d="M417.925 51.7803L428.757 62.613" stroke="#F0E8DB" stroke-linecap="round" stroke-linejoin="round"/>
<path d="M415.759 64.7795L424.425 71.2791" stroke="#F0E8DB" stroke-linecap="round" stroke-linejoin="round"/>
<path d="M404.926 79.9453H417.925" stroke="#F0E8DB" stroke-linecap="round" stroke-linejoin="round"/>
<path d="M415.759 90.778L424.425 84.2784" stroke="#F0E8DB" stroke-linecap="round" stroke-linejoin="round"/>
<path d="M417.925 103.777L428.757 92.9445" stroke="#F0E8DB" stroke-linecap="round" stroke-linejoin="round"/>
<path d="M433.09 105.944L435.257 95.1111" stroke="#F0E8DB" stroke-linecap="round" stroke-linejoin="round"/>
<path d="M443.924 105.944V116.776" stroke="#F0E8DB" stroke-linecap="round" stroke-linejoin="round"/>
<path d="M450.423 95.1111L454.756 105.944" stroke="#F0E8DB" stroke-linecap="round" stroke-linejoin="round"/>
<path d="M456.923 92.9445L469.922 103.777" stroke="#F0E8DB" stroke-linecap="round" stroke-linejoin="round"/>
<path d="M461.256 84.2784L469.922 90.778" stroke="#F0E8DB" stroke-linecap="round" stroke-linejoin="round"/>
<path d="M467.756 79.9453H480.755" stroke="#F0E8DB" stroke-linecap="round" stroke-linejoin="round"/>
<path d="M461.256 71.2791L469.922 64.7795" stroke="#F0E8DB" stroke-linecap="round" stroke-linejoin="round"/>
<path d="M456.923 62.613L467.756 51.7803" stroke="#F0E8DB" stroke-linecap="round" stroke-linejoin="round"/>
<path d="M450.423 60.4464L454.756 51.7803" stroke="#F0E8DB" stroke-linecap="round" stroke-linejoin="round"/>
<path d="M443.924 40.9476V49.6137" stroke="#F0E8DB" stroke-linecap="round" stroke-linejoin="round"/>
<path d="M34.8809 140.283C39.1273 140.283 40.1889 135.734 40.1889 133.459C40.1889 138.312 43.7276 140.031 45.4969 140.283C41.2505 140.283 40.1889 144.328 40.1889 146.35C40.1889 141.497 36.6502 140.283 34.8809 140.283Z" stroke="#F0E8DB" stroke-linecap="round" stroke-linejoin="round"/>
<path d="M30.3315 340.471C34.578 340.471 35.6396 335.922 35.6396 333.647C35.6396 338.5 39.1782 340.219 40.9476 340.471C36.7012 340.471 35.6396 344.516 35.6396 346.538C35.6396 341.685 32.1009 340.471 30.3315 340.471Z" stroke="#F0E8DB" stroke-linecap="round" stroke-linejoin="round"/>
<path d="M7.58301 410.234C11.8294 410.234 12.891 405.684 12.891 403.409C12.891 408.262 16.4297 409.981 18.199 410.234C13.9526 410.234 12.891 414.278 12.891 416.3C12.891 411.447 9.35235 410.234 7.58301 410.234Z" stroke="#F0E8DB" stroke-linecap="round" stroke-linejoin="round"/>
<path d="M30.3315 571.214C32.7581 571.214 33.3647 568.538 33.3647 567.2C33.3647 570.054 35.3868 571.065 36.3978 571.214C33.9713 571.214 33.3647 573.593 33.3647 574.782C33.3647 571.928 31.3426 571.214 30.3315 571.214Z" stroke="#F0E8DB" stroke-linecap="round" stroke-linejoin="round"/>
<path d="M459.522 519.65C461.949 519.65 462.556 516.974 462.556 515.636C462.556 518.491 464.578 519.502 465.589 519.65C463.162 519.65 462.556 522.029 462.556 523.219C462.556 520.364 460.534 519.65 459.522 519.65Z" stroke="#F0E8DB" stroke-linecap="round" stroke-linejoin="round"/>
<path d="M119.81 53.8385C124.056 53.8385 125.118 49.2887 125.118 47.0139C125.118 51.8669 128.656 53.5857 130.426 53.8385C126.179 53.8385 125.118 57.8827 125.118 59.9048C125.118 55.0517 121.579 53.8385 119.81 53.8385Z" stroke="#F0E8DB" stroke-linecap="round" stroke-linejoin="round"/>
<path d="M213.623 47.1878C239.654 67.9686 244.847 60.739 248.314 31.8481C252.853 61.8287 259.275 68.7059 283.21 49.0043C269.14 68.4679 270.438 77.3909 301.89 82.5093C273.375 85.8015 266.571 93.4403 283.21 118.436C260.03 98.9554 252.169 102.282 248.314 136.4C245.257 105.282 238.879 98.5516 213.623 118.436C230.856 94.3736 223.972 85.969 194.122 82.5093C223.915 78.5119 230.86 68.9172 213.623 47.1878Z" fill="#FFDA69"/>
<path d="M213.623 47.1878C239.654 67.9686 244.847 60.739 248.314 31.8481C252.853 61.8287 259.275 68.7059 283.21 49.0043C269.14 68.4679 270.438 77.3909 301.89 82.5093C273.375 85.8015 266.571 93.4403 283.21 118.436C260.03 98.9554 252.169 102.282 248.314 136.4C245.257 105.282 238.879 98.5516 213.623 118.436C230.856 94.3736 223.972 85.969 194.122 82.5093C223.915 78.5119 230.86 68.9172 213.623 47.1878Z" fill="#FFDA69"/>
<path d="M213.623 47.4238C248.314 83.2887 248.314 83.2887 248.314 31.8481C248.314 83.2887 248.314 83.2887 283.21 49.2682C248.314 83.2887 248.314 83.2887 301.89 83.2887C248.314 83.2887 248.314 83.2887 283.21 119.769C248.314 83.2887 248.314 83.2887 248.314 138.008C248.314 83.2887 248.314 83.2887 213.623 119.769C248.314 83.2887 248.314 83.2887 194.122 83.2887C248.314 83.2887 248.314 83.2887 213.623 47.4238Z" fill="white"/>
<path d="M213.623 47.4238C248.314 83.2887 248.314 83.2887 248.314 31.8481C248.314 83.2887 248.314 83.2887 283.21 49.2682C248.314 83.2887 248.314 83.2887 301.89 83.2887C248.314 83.2887 248.314 83.2887 283.21 119.769C248.314 83.2887 248.314 83.2887 248.314 138.008C248.314 83.2887 248.314 83.2887 213.623 119.769C248.314 83.2887 248.314 83.2887 194.122 83.2887C248.314 83.2887 248.314 83.2887 213.623 47.4238Z" fill="white"/>
<path d="M461.797 118.293L462.319 124.4L468.288 123.009L462.641 125.392L465.809 130.639L461.797 126.005L457.786 130.639L460.953 125.392L455.307 123.009L461.276 124.4L461.797 118.293Z" fill="#FAF1D9"/>
<path d="M472.413 550.517L472.935 556.624L478.904 555.233L473.257 557.616L476.425 562.863L472.413 558.229L468.402 562.863L471.57 557.616L465.923 555.233L471.892 556.624L472.413 550.517Z" fill="#FAF1D9"/>
<path d="M258.576 562.65L259.098 568.757L265.067 567.365L259.42 569.749L262.587 574.996L258.576 570.362L254.565 574.996L257.732 569.749L252.085 567.365L258.055 568.757L258.576 562.65Z" fill="#FAF1D9"/>
<path d="M469.38 330.614L469.67 334.006L472.986 333.233L469.849 334.557L471.609 337.472L469.38 334.898L467.152 337.472L468.912 334.557L465.774 333.233L469.091 334.006L469.38 330.614Z" fill="#FAF1D9"/>
<path d="M22.7489 33.3647L23.0966 37.4359L27.076 36.5085L23.3115 38.0972L25.4232 41.5952L22.7489 38.5059L20.0747 41.5952L22.1864 38.0972L18.4219 36.5085L22.4013 37.4359L22.7489 33.3647Z" fill="#FAF1D9"/>
<path d="M485.304 380.661L485.652 384.732L489.631 383.804L485.867 385.393L487.978 388.891L485.304 385.802L482.63 388.891L484.742 385.393L480.977 383.804L484.956 384.732L485.304 380.661Z" fill="#FAF1D9"/>
<path d="M339.713 571.749L340.061 575.821L344.04 574.893L340.276 576.482L342.388 579.98L339.713 576.891L337.039 579.98L339.151 576.482L335.386 574.893L339.366 575.821L339.713 571.749Z" fill="#FAF1D9"/>
<path d="M13.6489 316.965L13.9965 321.036L17.9759 320.108L14.2114 321.697L16.3231 325.195L13.6489 322.106L10.9746 325.195L13.0863 321.697L9.3218 320.108L13.3012 321.036L13.6489 316.965Z" fill="#FAF1D9"/>
<path d="M101.611 588.432L101.958 592.503L105.938 591.575L102.173 593.164L104.285 596.662L101.611 593.573L98.9365 596.662L101.048 593.164L97.2837 591.575L101.263 592.503L101.611 588.432Z" fill="#FAF1D9"/>
<path d="M461.039 232.036L461.387 236.107L465.367 235.18L461.602 236.769L463.714 240.267L461.039 237.177L458.365 240.267L460.477 236.769L456.712 235.18L460.692 236.107L461.039 232.036Z" fill="#FAF1D9"/>
<path d="M369.287 69.7625L369.808 75.8693L375.777 74.4782L370.13 76.8613L373.298 82.1083L369.287 77.4743L365.275 82.1083L368.443 76.8613L362.796 74.4782L368.765 75.8693L369.287 69.7625Z" fill="#FAF1D9"/>
<path d="M25.4787 262.368C26.0853 267.522 23.0522 277.236 12.1328 277.831C16.5814 277.038 25.4787 280.805 25.4787 292.699C25.2765 287.743 27.7839 277.831 39.4312 277.831C34.7804 278.029 25.4787 275.214 25.4787 262.368Z" stroke="#F0E8DB" stroke-linecap="round" stroke-linejoin="round"/>
<path d="M21.2318 272.984L13.6489 266.917" stroke="#F0E8DB" stroke-linecap="round" stroke-linejoin="round"/>
<path d="M30.3315 274.5L37.9144 266.917" stroke="#F0E8DB" stroke-linecap="round" stroke-linejoin="round"/>
<path d="M21.2318 282.083L13.6489 289.666" stroke="#F0E8DB" stroke-linecap="round" stroke-linejoin="round"/>
<path d="M30.3315 282.083L37.9144 288.15" stroke="#F0E8DB" stroke-linecap="round" stroke-linejoin="round"/>
<path d="M25.4787 477.721C26.0853 482.876 23.0522 492.59 12.1328 493.185C16.5814 492.392 25.4787 496.158 25.4787 508.053C25.2765 503.097 27.7839 493.185 39.4312 493.185C34.7804 493.383 25.4787 490.568 25.4787 477.721Z" stroke="#F0E8DB" stroke-linecap="round" stroke-linejoin="round"/>
<path d="M21.2318 488.338L13.6489 482.271" stroke="#F0E8DB" stroke-linecap="round" stroke-linejoin="round"/>
<path d="M30.3315 489.854L37.9144 482.271" stroke="#F0E8DB" stroke-linecap="round" stroke-linejoin="round"/>
<path d="M21.2318 497.437L13.6489 505.02" stroke="#F0E8DB" stroke-linecap="round" stroke-linejoin="round"/>
<path d="M30.3315 497.437L37.9144 503.503" stroke="#F0E8DB" stroke-linecap="round" stroke-linejoin="round"/>
<path d="M474.385 477.721C474.992 482.876 471.958 492.59 461.039 493.185C465.488 492.392 474.385 496.158 474.385 508.053C474.183 503.097 476.69 493.185 488.337 493.185C483.687 493.383 474.385 490.568 474.385 477.721Z" stroke="#F0E8DB" stroke-linecap="round" stroke-linejoin="round"/>
<path d="M470.139 488.338L462.556 482.271" stroke="#F0E8DB" stroke-linecap="round" stroke-linejoin="round"/>
<path d="M479.238 489.854L486.821 482.271" stroke="#F0E8DB" stroke-linecap="round" stroke-linejoin="round"/>
<path d="M470.139 497.437L462.556 505.02" stroke="#F0E8DB" stroke-linecap="round" stroke-linejoin="round"/>
<path d="M479.238 497.437L486.821 503.503" stroke="#F0E8DB" stroke-linecap="round" stroke-linejoin="round"/>
<path d="M472.868 262.368C473.475 267.522 470.442 277.236 459.522 277.831C463.971 277.038 472.868 280.805 472.868 292.699C472.666 287.743 475.174 277.831 486.821 277.831C482.17 278.029 472.868 275.214 472.868 262.368Z" stroke="#F0E8DB" stroke-linecap="round" stroke-linejoin="round"/>
<path d="M468.622 272.984L461.039 266.917" stroke="#F0E8DB" stroke-linecap="round" stroke-linejoin="round"/>
<path d="M477.722 274.5L485.305 266.917" stroke="#F0E8DB" stroke-linecap="round" stroke-linejoin="round"/>
<path d="M468.622 282.083L461.039 289.666" stroke="#F0E8DB" stroke-linecap="round" stroke-linejoin="round"/>
<path d="M477.722 282.083L485.305 288.15" stroke="#F0E8DB" stroke-linecap="round" stroke-linejoin="round"/>
<path d="M368.225 564.166C368.831 569.321 365.798 579.035 354.879 579.63C359.328 578.837 368.225 582.603 368.225 594.498C368.023 589.542 370.53 579.63 382.177 579.63C377.526 579.828 368.225 577.013 368.225 564.166Z" stroke="#F0E8DB" stroke-linecap="round" stroke-linejoin="round"/>
<path d="M363.978 574.782L356.396 568.716" stroke="#F0E8DB" stroke-linecap="round" stroke-linejoin="round"/>
<path d="M373.078 576.299L380.661 568.716" stroke="#F0E8DB" stroke-linecap="round" stroke-linejoin="round"/>
<path d="M363.978 583.882L356.396 591.465" stroke="#F0E8DB" stroke-linecap="round" stroke-linejoin="round"/>
<path d="M373.078 583.882L380.661 589.948" stroke="#F0E8DB" stroke-linecap="round" stroke-linejoin="round"/>
<path d="M154.387 564.166C154.994 569.321 151.961 579.035 141.042 579.63C145.49 578.837 154.387 582.603 154.387 594.498C154.185 589.542 156.693 579.63 168.34 579.63C163.689 579.828 154.387 577.013 154.387 564.166Z" stroke="#F0E8DB" stroke-linecap="round" stroke-linejoin="round"/>
<path d="M150.141 574.782L142.558 568.716" stroke="#F0E8DB" stroke-linecap="round" stroke-linejoin="round"/>
<path d="M159.241 576.299L166.824 568.716" stroke="#F0E8DB" stroke-linecap="round" stroke-linejoin="round"/>
<path d="M150.141 583.882L142.558 591.465" stroke="#F0E8DB" stroke-linecap="round" stroke-linejoin="round"/>
<path d="M159.241 583.882L166.824 589.948" stroke="#F0E8DB" stroke-linecap="round" stroke-linejoin="round"/>
<circle cx="106.918" cy="82.6534" r="0.758288" fill="#F0E8DB"/>
<path d="M9.19043 202.272L10.3582 195.85V184.172C10.3582 181.448 11.1756 175.064 14.4452 171.327C16.9753 167.435 24.2542 159.183 33.129 157.314C34.2967 157.12 35.8147 157.781 32.5451 161.985C29.2365 164.126 21.9187 169.692 19.1162 174.83" stroke="#F0E8DB" stroke-linecap="round" stroke-linejoin="round"/>
<path d="M32.5459 161.985C36.633 158.871 45.5077 151.943 48.3103 149.14C48.8942 148.751 50.4122 148.206 51.8135 149.14C52.2027 149.335 52.8645 150.191 52.3974 152.06" stroke="#F0E8DB" stroke-linecap="round" stroke-linejoin="round"/>
<path d="M37.2163 167.24C42.0819 162.764 52.2801 153.227 54.1484 150.892C54.7323 150.308 56.2504 149.374 57.6516 150.308C58.2355 150.892 59.0529 152.41 57.6516 153.811C54.1484 157.898 45.7408 167.474 40.1356 173.079" stroke="#F0E8DB" stroke-linecap="round" stroke-linejoin="round"/>
<path d="M52.9806 160.234C52.5913 163.153 49.7109 170.977 41.3032 178.918" stroke="#F0E8DB" stroke-linecap="round" stroke-linejoin="round"/>
<path d="M47.7255 172.495C48.3094 175.414 45.1565 184.289 27.8741 196.434C26.5117 197.796 24.0206 201.338 24.9547 204.608C25.1494 205.192 25.1883 206.593 23.787 207.527C21.4515 209.084 15.6129 211.03 10.9419 206.359C10.1634 205.581 8.72324 203.674 9.19033 202.272" stroke="#F0E8DB" stroke-linecap="round" stroke-linejoin="round"/>
<path d="M490.042 202.272L488.874 195.85V184.172C488.874 181.448 488.057 175.064 484.787 171.327C482.257 167.435 474.978 159.183 466.103 157.314C464.936 157.12 463.418 157.781 466.687 161.985C469.996 164.126 477.314 169.692 480.116 174.83" stroke="#F0E8DB" stroke-linecap="round" stroke-linejoin="round"/>
<path d="M466.687 161.985C462.599 158.871 453.725 151.943 450.922 149.14C450.338 148.751 448.82 148.206 447.419 149.14C447.03 149.335 446.368 150.191 446.835 152.06" stroke="#F0E8DB" stroke-linecap="round" stroke-linejoin="round"/>
<path d="M462.016 167.24C457.151 162.764 446.952 153.227 445.084 150.892C444.5 150.308 442.982 149.374 441.581 150.308C440.997 150.892 440.18 152.41 441.581 153.811C445.084 157.898 453.492 167.474 459.097 173.079" stroke="#F0E8DB" stroke-linecap="round" stroke-linejoin="round"/>
<path d="M446.252 160.234C446.641 163.153 449.522 170.977 457.929 178.918" stroke="#F0E8DB" stroke-linecap="round" stroke-linejoin="round"/>
<path d="M451.507 172.495C450.923 175.414 454.076 184.289 471.358 196.434C472.721 197.796 475.212 201.338 474.278 204.608C474.083 205.192 474.044 206.593 475.445 207.527C477.781 209.084 483.62 211.03 488.29 206.359C489.069 205.581 490.509 203.674 490.042 202.272" stroke="#F0E8DB" stroke-linecap="round" stroke-linejoin="round"/>
</svg>
