<svg width="433" height="852" viewBox="0 0 433 852" fill="none" xmlns="http://www.w3.org/2000/svg">
<rect width="433" height="852" rx="20" fill="#FAF1D9"/>
<rect x="15" y="20" width="403" height="812" rx="10" fill="#AA85A9"/>
<circle cx="216.5" cy="426" r="169" fill="#FFF0D4"/>
<path d="M132.5 334.5C195.906 385.979 208.555 368.07 217 296.5C228.057 370.769 243.7 387.805 302 339C267.727 387.216 270.888 409.32 347.5 422C278.044 430.155 261.471 449.079 302 511C245.537 462.741 226.39 470.982 217 555.5C209.554 478.414 194.019 461.74 132.5 511C174.475 451.391 157.708 430.57 85 422C157.571 412.097 174.487 388.329 132.5 334.5Z" fill="#FFDA69"/>
<path d="M132.5 334.5C195.906 385.979 208.555 368.07 217 296.5C228.057 370.769 243.7 387.805 302 339C267.727 387.216 270.888 409.32 347.5 422C278.044 430.155 261.471 449.079 302 511C245.537 462.741 226.39 470.982 217 555.5C209.554 478.414 194.019 461.74 132.5 511C174.475 451.391 157.708 430.57 85 422C157.571 412.097 174.487 388.329 132.5 334.5Z" fill="#FFDA69"/>
<path d="M132.5 334.5C195.906 385.979 208.555 368.07 217 296.5C228.057 370.769 243.7 387.805 302 339C267.727 387.216 270.888 409.32 347.5 422C278.044 430.155 261.471 449.079 302 511C245.537 462.741 226.39 470.982 217 555.5C209.554 478.414 194.019 461.74 132.5 511C174.475 451.391 157.708 430.57 85 422C157.571 412.097 174.487 388.329 132.5 334.5Z" stroke="#AA85A9"/>
<path d="M132.5 334.5C195.906 385.979 208.555 368.07 217 296.5C228.057 370.769 243.7 387.805 302 339C267.727 387.216 270.888 409.32 347.5 422C278.044 430.155 261.471 449.079 302 511C245.537 462.741 226.39 470.982 217 555.5C209.554 478.414 194.019 461.74 132.5 511C174.475 451.391 157.708 430.57 85 422C157.571 412.097 174.487 388.329 132.5 334.5Z" stroke="#AA85A9"/>
<path d="M86 422C86 422.828 85.3284 423.5 84.5 423.5C83.6716 423.5 83 422.828 83 422C83 421.172 83.6716 420.5 84.5 420.5C85.3284 420.5 86 421.172 86 422Z" fill="#AA85A9"/>
<path d="M134 510.5C134 511.328 133.328 512 132.5 512C131.672 512 131 511.328 131 510.5C131 509.672 131.672 509 132.5 509C133.328 509 134 509.672 134 510.5Z" fill="#AA85A9"/>
<path d="M218.5 556.5C218.5 557.328 217.828 558 217 558C216.172 558 215.5 557.328 215.5 556.5C215.5 555.672 216.172 555 217 555C217.828 555 218.5 555.672 218.5 556.5Z" fill="#AA85A9"/>
<path d="M304 511.5C304 512.328 303.328 513 302.5 513C301.672 513 301 512.328 301 511.5C301 510.672 301.672 510 302.5 510C303.328 510 304 510.672 304 511.5Z" fill="#AA85A9"/>
<path d="M350 422C350 422.828 349.328 423.5 348.5 423.5C347.672 423.5 347 422.828 347 422C347 421.172 347.672 420.5 348.5 420.5C349.328 420.5 350 421.172 350 422Z" fill="#AA85A9"/>
<path d="M304 338.5C304 339.328 303.328 340 302.5 340C301.672 340 301 339.328 301 338.5C301 337.672 301.672 337 302.5 337C303.328 337 304 337.672 304 338.5Z" fill="#AA85A9"/>
<path d="M133 333.5C133 334.328 132.328 335 131.5 335C130.672 335 130 334.328 130 333.5C130 332.672 130.672 332 131.5 332C132.328 332 133 332.672 133 333.5Z" fill="#AA85A9"/>
<path d="M218.5 295.5C218.5 296.328 217.828 297 217 297C216.172 297 215.5 296.328 215.5 295.5C215.5 294.672 216.172 294 217 294C217.828 294 218.5 294.672 218.5 295.5Z" fill="#AA85A9"/>
<circle cx="216" cy="426" r="158" stroke="#AA85A9" stroke-width="2"/>
<path d="M182.722 332.377C182.898 330.859 185.102 330.859 185.278 332.377C185.432 333.707 186.69 334.62 188.001 334.356C189.5 334.054 190.181 336.151 188.791 336.787C187.575 337.344 187.095 338.823 187.751 339.989C188.501 341.32 186.718 342.616 185.683 341.491C184.777 340.506 183.223 340.506 182.317 341.491C181.282 342.616 179.499 341.32 180.249 339.989C180.905 338.823 180.425 337.344 179.209 336.787C177.819 336.151 178.5 334.054 179.999 334.356C181.31 334.62 182.568 333.707 182.722 332.377Z" fill="#FFDA69" stroke="white"/>
<circle cx="149.5" cy="333.5" r="1" fill="white" stroke="#AA85A9"/>
<circle cx="168.5" cy="335.5" r="1" fill="white" stroke="#AA85A9"/>
<circle cx="204.5" cy="308.5" r="1" fill="white" stroke="#AA85A9"/>
<circle cx="195.5" cy="323.5" r="1" fill="white" stroke="#AA85A9"/>
<path d="M184.701 521.582C183.306 522.205 182.181 520.309 183.397 519.383C184.462 518.573 184.606 517.025 183.71 516.032C182.686 514.897 184.142 513.241 185.398 514.112C186.498 514.874 188.015 514.533 188.682 513.374C189.445 512.049 191.47 512.922 191.03 514.386C190.645 515.668 191.438 517.004 192.747 517.281C194.242 517.597 194.037 519.793 192.509 519.827C191.172 519.857 190.145 521.024 190.286 522.354C190.448 523.874 188.297 524.358 187.792 522.915C187.35 521.652 185.923 521.036 184.701 521.582Z" fill="#FFDA69" stroke="white"/>
<circle cx="202.613" cy="549.584" r="1" transform="rotate(-120.67 202.613 549.584)" fill="white" stroke="#AA85A9"/>
<circle cx="194.642" cy="532.221" r="1" transform="rotate(-120.67 194.642 532.221)" fill="white" stroke="#AA85A9"/>
<circle cx="153.055" cy="515.03" r="1" transform="rotate(-120.67 153.055 515.03)" fill="white" stroke="#AA85A9"/>
<circle cx="170.548" cy="515.119" r="1" transform="rotate(-120.67 170.548 515.119)" fill="white" stroke="#AA85A9"/>
<path d="M255.846 520.852C255.77 522.379 253.57 522.524 253.295 521.02C253.054 519.704 251.739 518.875 250.447 519.225C248.972 519.625 248.155 517.577 249.499 516.851C250.677 516.215 251.059 514.708 250.327 513.588C249.491 512.308 251.186 510.898 252.292 511.953C253.261 512.876 254.812 512.774 255.651 511.732C256.609 510.541 258.474 511.717 257.813 513.095C257.235 514.302 257.811 515.745 259.062 516.221C260.49 516.765 259.948 518.902 258.433 518.699C257.107 518.522 255.912 519.516 255.846 520.852Z" fill="#FFDA69" stroke="white"/>
<circle cx="288.922" cy="517.55" r="1" transform="rotate(176.233 288.922 517.55)" fill="white" stroke="#AA85A9"/>
<circle cx="269.831" cy="516.802" r="1" transform="rotate(176.233 269.831 516.802)" fill="white" stroke="#AA85A9"/>
<circle cx="235.683" cy="546.109" r="1" transform="rotate(176.233 235.683 546.109)" fill="white" stroke="#AA85A9"/>
<circle cx="243.678" cy="530.55" r="1" transform="rotate(176.233 243.678 530.55)" fill="white" stroke="#AA85A9"/>
<path d="M318.372 459.475C319.136 460.799 317.367 462.114 316.32 461.001C315.403 460.026 313.849 460.043 312.954 461.037C311.932 462.174 310.134 460.897 310.87 459.557C311.514 458.384 311.017 456.912 309.795 456.368C308.398 455.746 309.056 453.642 310.558 453.928C311.873 454.178 313.12 453.25 313.259 451.92C313.419 450.4 315.623 450.375 315.816 451.892C315.984 453.219 317.252 454.119 318.56 453.84C320.055 453.522 320.759 455.611 319.377 456.263C318.166 456.833 317.702 458.317 318.372 459.475Z" fill="#FFDA69" stroke="white"/>
<circle cx="344.364" cy="438.755" r="1" transform="rotate(143.374 344.364 438.755)" fill="white" stroke="#AA85A9"/>
<circle cx="327.922" cy="448.485" r="1" transform="rotate(143.374 327.922 448.485)" fill="white" stroke="#AA85A9"/>
<circle cx="315.139" cy="491.631" r="1" transform="rotate(143.374 315.139 491.631)" fill="white" stroke="#AA85A9"/>
<circle cx="313.413" cy="474.223" r="1" transform="rotate(143.374 313.413 474.223)" fill="white" stroke="#AA85A9"/>
<path d="M121.386 460.904C119.86 460.814 119.736 458.612 121.242 458.351C122.561 458.123 123.402 456.816 123.064 455.521C122.678 454.042 124.733 453.244 125.447 454.595C126.072 455.779 127.575 456.175 128.702 455.453C129.989 454.63 131.384 456.337 130.319 457.434C129.386 458.394 129.474 459.946 130.508 460.795C131.69 461.764 130.496 463.618 129.124 462.944C127.923 462.354 126.475 462.917 125.987 464.163C125.43 465.586 123.298 465.024 123.515 463.511C123.705 462.187 122.722 460.983 121.386 460.904Z" fill="#FFDA69" stroke="white"/>
<circle cx="124.378" cy="494.009" r="1" transform="rotate(-93.2283 124.378 494.009)" fill="white" stroke="#AA85A9"/>
<circle cx="125.305" cy="474.927" r="1" transform="rotate(-93.2283 125.305 474.927)" fill="white" stroke="#AA85A9"/>
<circle cx="96.3204" cy="440.505" r="1" transform="rotate(-93.2283 96.3204 440.505)" fill="white" stroke="#AA85A9"/>
<circle cx="111.803" cy="448.646" r="1" transform="rotate(-93.2283 111.803 448.646)" fill="white" stroke="#AA85A9"/>
<path d="M123.617 384.416C122.818 383.113 124.553 381.752 125.628 382.837C126.57 383.788 128.123 383.73 128.992 382.712C129.984 381.55 131.815 382.778 131.115 384.137C130.502 385.327 131.037 386.786 132.273 387.298C133.685 387.882 133.082 390.003 131.574 389.757C130.253 389.541 129.031 390.501 128.926 391.835C128.807 393.359 126.604 393.44 126.371 391.93C126.168 390.607 124.878 389.741 123.577 390.054C122.09 390.411 121.332 388.341 122.697 387.653C123.892 387.051 124.317 385.556 123.617 384.416Z" fill="#FFDA69" stroke="white"/>
<circle cx="98.1774" cy="405.811" r="1" transform="rotate(-38.1281 98.1774 405.811)" fill="white" stroke="#AA85A9"/>
<circle cx="114.358" cy="395.653" r="1" transform="rotate(-38.1281 114.358 395.653)" fill="white" stroke="#AA85A9"/>
<circle cx="126.006" cy="352.187" r="1" transform="rotate(-38.1281 126.006 352.187)" fill="white" stroke="#AA85A9"/>
<circle cx="128.188" cy="369.543" r="1" transform="rotate(-38.1281 128.188 369.543)" fill="white" stroke="#AA85A9"/>
<path d="M254.702 334.148C256.021 333.374 257.348 335.135 256.241 336.189C255.273 337.112 255.3 338.666 256.301 339.555C257.444 340.569 256.18 342.375 254.835 341.649C253.658 341.013 252.188 341.519 251.653 342.746C251.041 344.146 248.932 343.502 249.208 341.999C249.449 340.683 248.513 339.441 247.181 339.311C245.66 339.162 245.621 336.958 247.136 336.755C248.462 336.577 249.354 335.304 249.066 333.997C248.738 332.504 250.822 331.786 251.483 333.164C252.062 334.371 253.548 334.825 254.702 334.148Z" fill="#FFDA69" stroke="white"/>
<circle cx="233.806" cy="308.296" r="1" transform="rotate(52.9865 233.806 308.296)" fill="white" stroke="#AA85A9"/>
<circle cx="243.647" cy="324.672" r="1" transform="rotate(52.9865 243.647 324.672)" fill="white" stroke="#AA85A9"/>
<circle cx="286.879" cy="337.163" r="1" transform="rotate(52.9865 286.879 337.163)" fill="white" stroke="#AA85A9"/>
<circle cx="269.483" cy="339.007" r="1" transform="rotate(52.9865 269.483 339.007)" fill="white" stroke="#AA85A9"/>
<path d="M316.07 389.017C317.596 388.934 317.969 391.106 316.502 391.537C315.218 391.914 314.531 393.308 315.013 394.556C315.564 395.981 313.613 397.008 312.751 395.746C311.996 394.641 310.457 394.418 309.42 395.263C308.234 396.227 306.655 394.689 307.588 393.479C308.406 392.419 308.143 390.887 307.019 390.161C305.735 389.332 306.71 387.355 308.15 387.868C309.41 388.318 310.785 387.595 311.129 386.301C311.521 384.824 313.702 385.14 313.659 386.668C313.62 388.006 314.733 389.091 316.07 389.017Z" fill="#FFDA69" stroke="white"/>
<circle cx="309.339" cy="356.465" r="1" transform="rotate(80.2539 309.339 356.465)" fill="white" stroke="#AA85A9"/>
<circle cx="310.585" cy="375.529" r="1" transform="rotate(80.2539 310.585 375.529)" fill="white" stroke="#AA85A9"/>
<circle cx="343.289" cy="406.439" r="1" transform="rotate(80.2539 343.289 406.439)" fill="white" stroke="#AA85A9"/>
<circle cx="326.982" cy="400.108" r="1" transform="rotate(80.2539 326.982 400.108)" fill="white" stroke="#AA85A9"/>
<path d="M59.1842 770.727L61.2348 787.33H67.8704L62.502 797.592L64.5526 814.195L59.1842 803.934L53.8159 814.195L55.8664 797.592L98.0001 832L57.1337 787.33L59.1842 770.727Z" fill="white"/>
<path d="M53.8158 814.273L51.7652 797.67H45.1296L50.498 787.408L48.4474 770.805L53.8158 781.066L59.1841 770.805L57.1336 787.408L14.9999 753L55.8663 797.67L53.8158 814.273Z" fill="white"/>
<path d="M373.816 770.727L371.765 787.33H365.13L370.498 797.592L368.447 814.195L373.816 803.934L379.184 814.195L377.134 797.592L335 832L375.866 787.33L373.816 770.727Z" fill="white"/>
<path d="M379.184 814.273L381.235 797.67H387.87L382.502 787.408L384.553 770.805L379.184 781.066L373.816 770.805L375.866 787.408L418 753L377.134 797.67L379.184 814.273Z" fill="white"/>
<path d="M132.5 334.5C195.906 385.979 208.555 368.07 217 296.5C228.057 370.769 243.7 387.805 302 339C267.727 387.216 270.888 409.32 347.5 422C278.044 430.155 261.471 449.079 302 511C245.537 462.741 226.39 470.982 217 555.5C209.554 478.414 194.019 461.74 132.5 511C174.475 451.391 157.708 430.57 85 422C157.571 412.097 174.487 388.329 132.5 334.5Z" fill="#FFDA69"/>
<path d="M132.5 334.5C195.906 385.979 208.555 368.07 217 296.5C228.057 370.769 243.7 387.805 302 339C267.727 387.216 270.888 409.32 347.5 422C278.044 430.155 261.471 449.079 302 511C245.537 462.741 226.39 470.982 217 555.5C209.554 478.414 194.019 461.74 132.5 511C174.475 451.391 157.708 430.57 85 422C157.571 412.097 174.487 388.329 132.5 334.5Z" fill="#FFDA69"/>
<path d="M132.5 334.5C195.906 385.979 208.555 368.07 217 296.5C228.057 370.769 243.7 387.805 302 339C267.727 387.216 270.888 409.32 347.5 422C278.044 430.155 261.471 449.079 302 511C245.537 462.741 226.39 470.982 217 555.5C209.554 478.414 194.019 461.74 132.5 511C174.475 451.391 157.708 430.57 85 422C157.571 412.097 174.487 388.329 132.5 334.5Z" stroke="#AA85A9" stroke-width="2"/>
<path d="M132.5 334.5C195.906 385.979 208.555 368.07 217 296.5C228.057 370.769 243.7 387.805 302 339C267.727 387.216 270.888 409.32 347.5 422C278.044 430.155 261.471 449.079 302 511C245.537 462.741 226.39 470.982 217 555.5C209.554 478.414 194.019 461.74 132.5 511C174.475 451.391 157.708 430.57 85 422C157.571 412.097 174.487 388.329 132.5 334.5Z" stroke="#AA85A9" stroke-width="2"/>
<path d="M132.5 332C217 419.5 217 419.5 217 294C217 419.5 217 419.5 302 336.5C217 419.5 217 419.5 347.5 419.5C217 419.5 217 419.5 302 508.5C217 419.5 217 419.5 217 553C217 419.5 217 419.5 132.5 508.5C217 419.5 217 419.5 85 419.5C217 419.5 217 419.5 132.5 332Z" fill="white"/>
<path d="M132.5 332C217 419.5 217 419.5 217 294C217 419.5 217 419.5 302 336.5C217 419.5 217 419.5 347.5 419.5C217 419.5 217 419.5 302 508.5C217 419.5 217 419.5 217 553C217 419.5 217 419.5 132.5 508.5C217 419.5 217 419.5 85 419.5C217 419.5 217 419.5 132.5 332Z" fill="white"/>
<path d="M379.184 37.7267L381.235 54.3302H387.87L382.502 64.5916L384.553 81.1951L379.184 70.9336L373.816 81.1951L375.866 64.5916L418 99L377.134 54.3302L379.184 37.7267Z" fill="white"/>
<path d="M373.816 81.2732L371.765 64.6698H365.13L370.498 54.4083L368.447 37.8049L373.816 48.0664L379.184 37.8049L377.134 54.4083L335 20L375.866 64.6698L373.816 81.2732Z" fill="white"/>
<path d="M54.8158 37.7267L52.7652 54.3302H46.1296L51.498 64.5916L49.4474 81.1951L54.8158 70.9336L60.1841 81.1951L58.1336 64.5916L15.9999 99L56.8663 54.3302L54.8158 37.7267Z" fill="white"/>
<path d="M60.1842 81.2732L62.2348 64.6698H68.8704L63.502 54.4083L65.5526 37.8049L60.1842 48.0664L54.8159 37.8049L56.8664 54.4083L99.0001 20L58.1337 64.6698L60.1842 81.2732Z" fill="white"/>
<path d="M404 758.774L398.226 753L404 747.226L409.774 753L404 758.774ZM403 753V518H405V753H403Z" fill="white"/>
<path d="M404 93.2265L398.226 99L404 104.774L409.774 99L404 93.2265ZM403 99V334H405V99H403Z" fill="white"/>
<path d="M29 758.774L23.2265 753L29 747.226L34.7735 753L29 758.774ZM28 753V518L30 518V753L28 753Z" fill="white"/>
<path d="M29 93.2265L23.2265 99L29 104.774L34.7735 99L29 93.2265ZM28 99L28 334H30L30 99H28Z" fill="white"/>
<path d="M330.774 29.9999L325 35.7734L319.226 29.9999L325 24.2264L330.774 29.9999ZM325 30.9999L245.948 30.9999L245.948 28.9999L325 28.9999L325 30.9999Z" fill="white"/>
<path d="M99.2265 30L105 35.7735L110.774 30L105 24.2265L99.2265 30ZM105 31L184.052 31V29L105 29V31Z" fill="white"/>
<path d="M330.774 822L325 827.773L319.226 822L325 816.226L330.774 822ZM325 823H245.948L245.948 821H325L325 823Z" fill="white"/>
<path d="M99.2265 822L105 827.774L110.774 822L105 816.226L99.2265 822ZM105 823H184.052V821H105V823Z" fill="white"/>
</svg>
