<svg width="21" height="21" viewBox="0 0 21 21" fill="none" xmlns="http://www.w3.org/2000/svg">
<g clip-path="url(#clip0_1261_3369)">
<path d="M15.3398 0.820312C14.0437 0.820312 12.8297 1.3207 11.9191 2.23945L8.28516 5.86523C7.36641 6.77578 6.86602 7.99805 6.86602 9.28594C6.86602 10.943 7.70273 12.4605 9.09727 13.3629C9.31055 13.5023 9.55664 13.5352 9.78633 13.4859C10.0078 13.4367 10.2211 13.2973 10.3523 13.0922C10.4836 12.8789 10.5246 12.6328 10.4754 12.4113C10.4262 12.1816 10.2867 11.9766 10.0816 11.8371C9.20391 11.2793 8.68711 10.3277 8.68711 9.29414C8.68711 8.49023 8.99883 7.72734 9.57305 7.15312L13.1988 3.52734C13.773 2.95312 14.5277 2.64141 15.3398 2.64141C17.0051 2.64141 18.3668 3.99492 18.3668 5.66836C18.3668 6.47227 18.0551 7.23516 17.4809 7.80937L15.7582 9.53203C15.5777 9.7125 15.4875 9.95039 15.4875 10.1883C15.4875 10.418 15.5777 10.6395 15.7582 10.8117C15.9387 10.9922 16.1684 11.0742 16.398 11.0742C16.6277 11.0742 16.8656 10.984 17.0379 10.8117L18.7605 9.08906C19.6793 8.17031 20.1797 6.94805 20.1797 5.66016C20.1797 2.99414 18.0059 0.820312 15.3398 0.820312ZM11.8945 7.63711C11.6812 7.49766 11.4352 7.46484 11.2055 7.51406C10.984 7.56328 10.7707 7.70273 10.6395 7.90781C10.5082 8.12109 10.4672 8.36719 10.5164 8.58867C10.5656 8.81836 10.7051 9.02344 10.9102 9.16289C11.7879 9.7207 12.3047 10.6723 12.3047 11.7059C12.3047 12.5098 11.993 13.2727 11.4187 13.8469L7.79297 17.4809C7.21875 18.0551 6.46406 18.3668 5.65195 18.3668C3.98672 18.3668 2.625 17.0133 2.625 15.3398C2.625 14.5359 2.93672 13.773 3.51094 13.1988L5.23359 11.4762C5.41406 11.2957 5.5043 11.0578 5.5043 10.8199C5.5043 10.5984 5.41406 10.3688 5.23359 10.1965C5.05312 10.016 4.82344 9.93398 4.59375 9.93398C4.36406 9.93398 4.12617 10.0242 3.95391 10.1965L2.23125 11.9191C1.3207 12.8297 0.820312 14.0437 0.820312 15.3398C0.820312 18.0059 2.99414 20.1797 5.66016 20.1797C6.95625 20.1797 8.17031 19.6793 9.08086 18.7605L12.7148 15.1348C13.6336 14.2242 14.134 13.002 14.134 11.7141C14.1258 10.057 13.2973 8.53125 11.8945 7.63711Z" fill="#DD93E5"/>
</g>
<defs>
<clipPath id="clip0_1261_3369">
<rect width="21" height="21" fill="white"/>
</clipPath>
</defs>
</svg>
