<svg width="20" height="20" viewBox="0 0 20 20" fill="none" xmlns="http://www.w3.org/2000/svg">
<path fill-rule="evenodd" clip-rule="evenodd" d="M10 20C4.47715 20 0 15.5228 0 10C0 4.47715 4.47715 0 10 0C15.5228 0 20 4.47715 20 10C20 15.5228 15.5228 20 10 20ZM8.00257 6.51356C7.61205 6.12303 7.61205 5.48987 8.00257 5.09935C8.3931 4.70882 9.02626 4.70882 9.41678 5.09935L13.6103 9.29289C14.0009 9.68342 14.0009 10.3166 13.6103 10.7071L9.41678 14.9007C9.02626 15.2912 8.3931 15.2912 8.00257 14.9007C7.61205 14.5101 7.61205 13.877 8.00257 13.4864L11.489 10L8.00257 6.51356Z" fill="white" fill-opacity="0.6"/>
</svg>
