<svg width="23" height="28" viewBox="0 0 23 28" fill="none" xmlns="http://www.w3.org/2000/svg">
<path d="M22.0498 10.9286C22.0498 16.5455 17.4653 21.1072 11.7998 21.1072C6.13427 21.1072 1.5498 16.5455 1.5498 10.9286C1.5498 5.31171 6.13427 0.75 11.7998 0.75C17.4653 0.75 22.0498 5.31171 22.0498 10.9286Z" stroke="#4E434E" stroke-width="1.5"/>
<path d="M18.6003 18.6428V21.8571C19.2474 21.8571 20.5415 22.2428 20.5415 23.7857V26.3571C20.5415 26.5714 20.4121 27 19.8944 27H3.07089C2.8552 27 2.42383 26.8714 2.42383 26.3571V23.7857C2.42366 23.1428 2.81162 21.8571 4.36476 21.8571V18.6429L18.6003 18.6428Z" fill="#F5F5F5"/>
<path d="M18.6003 21.8571V18.6428L4.36476 18.6429V21.8571M18.6003 21.8571C19.2474 21.8571 20.5415 22.2428 20.5415 23.7857V26.3571C20.5415 26.5714 20.4121 27 19.8944 27H3.07089C2.8552 27 2.42383 26.8714 2.42383 26.3571V23.7857C2.42366 23.1428 2.81162 21.8571 4.36476 21.8571M18.6003 21.8571H4.36476" stroke="#4E434E" stroke-width="1.5" stroke-linejoin="round"/>
<ellipse cx="4.48815" cy="9.83572" rx="0.841176" ry="0.835717" fill="#4E434E"/>
<ellipse cx="17.4296" cy="13.6929" rx="0.841176" ry="0.835717" fill="#4E434E"/>
<path d="M8.17676 7.71433C10.765 7.71433 11.1964 5.35718 11.4121 3.85718C11.4121 6.42861 12.0591 7.07147 14.6473 7.71433C12.0591 7.71433 11.6277 9.8572 11.4121 11.5715C11.4121 8.35719 9.47088 7.92862 8.17676 7.71433Z" fill="#4E434E" stroke="#4E434E" stroke-linejoin="round"/>
</svg>
