<svg width="27" height="25" viewBox="0 0 27 25" fill="none" xmlns="http://www.w3.org/2000/svg">
<path d="M1.6048 2.89831C3.17546 0.325096 5.93526 -0.0954179 7.11883 0.0159766C9.8257 0.0159766 11.7835 1.77044 12.424 2.64767C13.2595 3.44971 13.9696 2.92616 14.2202 2.56412C16.4593 -0.142761 19.9431 0.0159759 21.4052 0.433705C24.3126 1.36942 25.5686 3.97048 25.8331 5.15405C26.9359 9.2645 24.7331 13.2719 23.4938 14.7618C19.0826 20.2758 15.3342 23.186 14.0114 23.9519C13.2428 24.7205 11.9923 23.8822 11.4632 23.367L7.62012 20.067C2.64078 15.8897 0.755423 11.2529 0.43516 9.45666C-0.132952 5.7138 0.978208 3.5249 1.6048 2.89831Z" fill="url(#paint0_linear_1212_2315)"/>
<path d="M2.28866 7.85327C2.22182 7.11806 2.84563 6.46083 3.16589 6.22412C3.16589 8.93101 4.61403 12.309 5.33809 13.6597C6.18906 15.2471 9.04196 18.394 10.142 19.5497C9.67412 19.3826 9.09765 18.873 8.97234 18.6307C8.97234 18.8312 9.6964 19.5497 10.0584 19.8839C4.37731 15.74 2.51145 10.1369 2.28866 7.85327Z" fill="#F37EB4"/>
<path d="M7.13033 1.54564C7.09691 0.676766 7.96632 0.8465 8.25851 0.877278C9.84595 1.04437 11.8511 2.79883 12.6861 3.84315C12.8867 4.07708 13.1596 4.07987 13.271 4.05202C13.271 4.85406 13.2431 5.24951 13.2292 5.34698C13.1624 5.88167 12.4216 5.23558 12.0595 4.8457C10.5891 3.00769 8.82911 2.21401 8.13289 2.04692C7.43111 1.91324 7.17211 1.65704 7.13033 1.54564Z" fill="url(#paint1_linear_1212_2315)"/>
<path d="M9.72063 6.18236C7.98288 4.87904 7.43704 3.32787 7.38135 2.7152C9.15252 2.38102 11.3219 4.13548 12.1852 5.05449C12.4192 5.32183 12.9232 5.58361 13.146 5.68108C13.146 5.98185 12.9789 6.7254 12.8954 7.05959C12.8285 7.39377 12.5333 7.44947 12.3941 7.43554C11.6923 7.5358 10.3194 6.64186 9.72063 6.18236Z" fill="url(#paint2_linear_1212_2315)"/>
<path d="M17.6141 1.83797C17.9149 1.06935 19.5218 0.988587 20.2876 1.04428C21.8917 1.24479 22.9611 1.87974 23.2952 2.17216C25.8016 4.077 25.4813 7.00389 25.0079 8.22923C24.9077 8.52999 24.1864 8.271 23.8383 8.10391L23.88 7.31023C23.9469 3.26661 20.6496 2.29747 18.9926 2.29747C17.6558 2.38102 17.5584 2.06076 17.6141 1.83797Z" fill="url(#paint3_linear_1212_2315)"/>
<path d="M17.4888 5.80649C17.823 4.46975 17.7116 3.6343 17.6141 3.38366C19.6526 2.34769 21.4154 3.28619 22.042 3.88493C22.1673 3.96848 22.237 4.35836 22.2091 4.59507C22.1757 5.49737 21.8332 6.25207 21.6661 6.51663C21.5324 6.78397 21.3876 6.65587 21.3319 6.5584C20.2291 5.52243 18.3103 5.62547 17.4888 5.80649Z" fill="url(#paint4_linear_1212_2315)"/>
<path d="M4.23793 7.35205C4.39109 8.77233 5.71669 12.8327 9.79373 17.7117L9.16713 17.1687C9.28737 17.3791 9.52007 17.7625 9.71583 18.0233C9.87377 18.1982 9.95097 18.2814 9.91905 18.2548C9.86281 18.2079 9.79213 18.1249 9.71583 18.0233C8.63396 16.8253 3.76406 11.3253 4.23793 7.35205Z" fill="url(#paint5_linear_1212_2315)"/>
<path d="M23.4627 9.35711C23.8303 8.88926 24.34 8.93938 24.5488 9.02293C23.5797 14.4701 17.155 20.7611 14.0638 23.2257L14.5013 22.7422C13.9048 23.3373 13.5245 23.3797 13.3955 23.3093C13.1615 23.4429 10.7081 21.1092 9.51057 19.9257L11.7245 21.8054L9.38525 19.675C11.641 21.5966 12.9777 22.432 13.3955 22.808C13.7296 23.1088 14.9271 21.9029 15.4841 21.2624L14.5233 22.0143C21.3072 14.8628 23.3096 10.5964 23.4627 9.35711Z" fill="url(#paint6_linear_1212_2315)"/>
<path fill-rule="evenodd" clip-rule="evenodd" d="M14.2726 2.50634C14.0081 2.95192 13.2474 3.48845 12.4453 2.65299C10.8858 0.717514 6.08514 -2.04691 1.87677 2.36058C-0.866317 5.14544 -2.72058 13.4425 12.184 23.9359C12.5043 24.2422 13.5207 24.5959 14.3562 23.727C15.7835 22.6491 18.3841 20.3757 20.424 18.1759C23.2924 15.494 28.2271 8.79362 25.019 3.44668C23.8076 1.23272 19.9872 -1.9383 14.2726 2.50634ZM13.5867 4.19866V4.07334C13.4197 4.10119 13.0019 4.03993 12.6677 3.57207C10.6069 1.13532 5.44102 -2.00044 1.26373 4.95058C0.275104 7.31771 1.0298 14.2325 11.9576 22.9547C12.0382 22.9547 12.1456 23.0446 12.2826 23.1594C12.7136 23.5205 13.4381 24.1275 14.5475 22.9547C18.1122 20.4205 25.2999 13.7062 25.5338 7.12277C25.7009 5.41008 25.0827 1.75912 21.273 0.856828C21.2335 0.856828 21.1716 0.851604 21.0892 0.844647C20.2999 0.777999 17.6271 0.552321 14.7146 3.23789C14.5614 3.46068 14.1214 3.96474 13.5867 4.19866Z" fill="url(#paint7_linear_1212_2315)"/>
<path d="M2.31891 2.85903C0.522677 4.78058 0.773315 7.91355 0.815088 7.9971C0.731558 4.98944 2.44422 3.02612 2.44422 2.98435C2.47763 2.91751 2.45814 2.87295 2.44422 2.85903C2.4108 2.82561 2.34676 2.8451 2.31891 2.85903Z" fill="url(#paint8_linear_1212_2315)"/>
<path d="M9.38986 20.2362C0.132976 12.717 0.659315 6.01945 2.07959 3.61054C2.49928 3.11272 2.9176 2.68127 3.33277 2.30993C-2.97494 11.9956 14.1102 23.578 13.1076 23.035C12.3056 22.6005 10.2949 20.9881 9.38986 20.2362Z" fill="url(#paint9_linear_1212_2315)"/>
<path d="M11.5 23C9.39464 21.3625 6.54629 18.7003 5.48804 17.5446C-2.29844 9.39053 0.795546 3.5089 3.31585 1.58735C8.09467 -1.28663 11.5713 1.82406 12.6852 3.71777C12.7827 3.85701 13.0278 4.11879 13.2283 4.05195" stroke="url(#paint10_linear_1212_2315)" stroke-width="0.7" stroke-linecap="round"/>
<path d="M14.0635 3.30012C15.7205 1.55958 19.9785 -1.08604 23.7548 2.25579C24.6181 2.85454 26.1776 4.9961 25.5093 8.77237" stroke="url(#paint11_linear_1212_2315)" stroke-width="0.1" stroke-linecap="round"/>
<path d="M25.7186 7.72803C25.9135 9.55211 24.691 14.6373 18.2412 20.3852" stroke="url(#paint12_linear_1212_2315)" stroke-width="0.1" stroke-linecap="round"/>
<path d="M3.62869 2.08862C2.05524 3.5646 -0.0974572 7.97025 3.87933 13.785C5.58622 16.19 9.6 21.4 12 23C12.5 23.5 13.7 24.2 14.5 23" stroke="url(#paint13_linear_1212_2315)" stroke-width="0.1" stroke-linecap="round"/>
<defs>
<linearGradient id="paint0_linear_1212_2315" x1="14.3976" y1="11.1534" x2="5.79235" y2="18.3383" gradientUnits="userSpaceOnUse">
<stop stop-color="#F662AA"/>
<stop offset="0.7" stop-color="#D20968"/>
</linearGradient>
<linearGradient id="paint1_linear_1212_2315" x1="9.46868" y1="1.92159" x2="7.12939" y2="1.12791" gradientUnits="userSpaceOnUse">
<stop stop-color="#FCFBFC"/>
<stop offset="1" stop-color="#F8E0FE"/>
</linearGradient>
<linearGradient id="paint2_linear_1212_2315" x1="10.0533" y1="5.63931" x2="9.13434" y2="6.14058" gradientUnits="userSpaceOnUse">
<stop stop-color="#FCFBFC"/>
<stop offset="1" stop-color="#FADDFD"/>
</linearGradient>
<linearGradient id="paint3_linear_1212_2315" x1="24.3559" y1="5.29283" x2="24.7573" y2="8.35455" gradientUnits="userSpaceOnUse">
<stop stop-color="#FCFBFC"/>
<stop offset="1" stop-color="#FAC0F1"/>
</linearGradient>
<linearGradient id="paint4_linear_1212_2315" x1="18.8673" y1="4.51153" x2="17.823" y2="5.34698" gradientUnits="userSpaceOnUse">
<stop stop-color="#FCFBFC"/>
<stop offset="1" stop-color="#FBCDF9"/>
</linearGradient>
<linearGradient id="paint5_linear_1212_2315" x1="7.38031" y1="13.7015" x2="9.88669" y2="16.9181" gradientUnits="userSpaceOnUse">
<stop stop-color="#DD4087"/>
<stop offset="1" stop-color="#D60B6D"/>
</linearGradient>
<linearGradient id="paint6_linear_1212_2315" x1="24.2146" y1="7.85329" x2="11.8086" y2="23.3058" gradientUnits="userSpaceOnUse">
<stop stop-color="#F7A5E0"/>
<stop offset="0.593351" stop-color="#F672B8"/>
<stop offset="1" stop-color="#D12979"/>
</linearGradient>
<linearGradient id="paint7_linear_1212_2315" x1="13.0612" y1="17.3357" x2="8.80038" y2="25.6903" gradientUnits="userSpaceOnUse">
<stop stop-color="#FC6DB9"/>
<stop offset="0.866638" stop-color="#D32476"/>
</linearGradient>
<linearGradient id="paint8_linear_1212_2315" x1="1.62123" y1="2.84058" x2="1.62123" y2="7.9971" gradientUnits="userSpaceOnUse">
<stop stop-color="#F994C6"/>
<stop offset="1" stop-color="#FC6DB9"/>
</linearGradient>
<linearGradient id="paint9_linear_1212_2315" x1="3.78763" y1="10.1091" x2="13.3119" y2="23.7688" gradientUnits="userSpaceOnUse">
<stop stop-color="#EE74AF"/>
<stop offset="1" stop-color="#D40B69"/>
</linearGradient>
<linearGradient id="paint10_linear_1212_2315" x1="6.58025" y1="0.412647" x2="12.6852" y2="24.646" gradientUnits="userSpaceOnUse">
<stop stop-color="#FA359E"/>
<stop offset="1" stop-color="#E8579D"/>
</linearGradient>
<linearGradient id="paint11_linear_1212_2315" x1="13.8128" y1="3.38366" x2="21.3713" y2="12.6321" gradientUnits="userSpaceOnUse">
<stop stop-color="#ED64AB"/>
<stop offset="0.25" stop-color="#E42789"/>
<stop offset="1" stop-color="#DF46A7"/>
</linearGradient>
<linearGradient id="paint12_linear_1212_2315" x1="22.4603" y1="14.8712" x2="23.9704" y2="7.5616" gradientUnits="userSpaceOnUse">
<stop stop-color="#E15C9D"/>
<stop offset="1" stop-color="#DB2592"/>
</linearGradient>
<linearGradient id="paint13_linear_1212_2315" x1="2.7431" y1="3.59245" x2="3.78743" y2="12.3648" gradientUnits="userSpaceOnUse">
<stop stop-color="#E76EA7"/>
<stop offset="0.583445" stop-color="#FA359E"/>
<stop offset="1" stop-color="#D20968"/>
</linearGradient>
</defs>
</svg>
