<svg width="46" height="46" viewBox="0 0 46 46" fill="none" xmlns="http://www.w3.org/2000/svg">
<circle cx="23" cy="23" r="23" fill="#4E434E"/>
<path d="M32 19.8065V31.0826C32 31.7765 31.4074 31.95 31.1111 31.95H16.8889C16.1778 31.95 16 31.3717 16 31.0826V13.3011C16 12.2602 16.5926 12 16.8889 12H24C24.5075 12 24.9546 12.0736 25.3333 12.1815M32 19.8065C32 19.3728 31.5556 17.638 31.1111 17.2043L26.6667 12.8674C26.4761 12.6814 26.0159 12.3759 25.3333 12.1815M32 19.8065C32 18.7657 28.4444 18.5054 26.6667 18.5054C25.6 18.5054 25.3333 18.2163 25.3333 18.0717V12.1815M20.4444 25.0109L23.1111 27.613L27.5556 21.975" stroke="#FFDDFF" stroke-width="2" stroke-linecap="round" stroke-linejoin="round"/>
</svg>
