<svg width="20" height="20" viewBox="0 0 20 20" fill="none" xmlns="http://www.w3.org/2000/svg">
<path fill-rule="evenodd" clip-rule="evenodd" d="M10 20C15.5228 20 20 15.5228 20 10C20 4.47715 15.5228 0 10 0C4.47715 0 0 4.47715 0 10C0 15.5228 4.47715 20 10 20ZM11.9974 6.51356C12.388 6.12303 12.388 5.48987 11.9974 5.09935C11.6069 4.70882 10.9737 4.70882 10.5832 5.09935L6.38967 9.29289C5.99914 9.68342 5.99914 10.3166 6.38967 10.7071L10.5832 14.9007C10.9737 15.2912 11.6069 15.2912 11.9974 14.9007C12.388 14.5101 12.388 13.877 11.9974 13.4864L8.51099 10L11.9974 6.51356Z" fill="white" fill-opacity="0.6"/>
</svg>
