<svg width="20" height="30" viewBox="0 0 20 30" fill="none" xmlns="http://www.w3.org/2000/svg">
<path d="M15.3276 11.2744C17.1317 12.4363 18.5114 14.1507 19.2607 16.1615C20.0101 18.1723 20.0888 20.3715 19.4853 22.4307C18.8817 24.4899 17.6281 26.2986 15.9118 27.5867C14.1955 28.8747 12.1086 29.573 9.96277 29.5772C7.81692 29.5814 5.72728 28.8913 4.00597 27.61C2.28466 26.3287 1.02404 24.5249 0.412395 22.468C-0.199247 20.4112 -0.129091 18.2117 0.612387 16.198C1.35386 14.1843 2.72687 12.4645 4.52634 11.2955L5.9189 13.4391C4.58202 14.3076 3.56198 15.5852 3.01111 17.0813C2.46025 18.5773 2.40813 20.2114 2.86253 21.7394C3.31694 23.2675 4.25349 24.6076 5.5323 25.5595C6.81111 26.5115 8.36356 27.0242 9.95777 27.021C11.552 27.0179 13.1024 26.4992 14.3775 25.5422C15.6526 24.5853 16.5839 23.2416 17.0323 21.7117C17.4807 20.1819 17.4222 18.548 16.8655 17.0541C16.3088 15.5603 15.2837 14.2866 13.9435 13.4234L15.3276 11.2744Z" fill="#3B4160"/>
<rect x="-1" y="1" width="9.3639" height="20.7278" rx="4.68195" transform="matrix(-1 0 0 1 13.6251 0)" fill="white" stroke="#3B4160" stroke-width="2"/>
<circle cx="7.41235" cy="7.41235" r="6.91235" transform="matrix(-1 0 0 1 17.3553 12.2213)" fill="#3B4160" stroke="white"/>
<rect width="2.84098" height="11.3639" rx="1.42049" transform="matrix(-1 0 0 1 11.3635 5.68201)" fill="#3B4160"/>
</svg>
