<svg width="46" height="46" viewBox="0 0 46 46" fill="none" xmlns="http://www.w3.org/2000/svg">
<circle cx="23" cy="23" r="23" fill="#4E434E"/>
<path d="M33.25 19.9286C33.25 25.5455 28.6655 30.1072 23 30.1072C17.3345 30.1072 12.75 25.5455 12.75 19.9286C12.75 14.3117 17.3345 9.75 23 9.75C28.6655 9.75 33.25 14.3117 33.25 19.9286Z" stroke="#FFDDFF" stroke-width="1.5"/>
<path d="M29.8005 27.6428V30.8571C30.4476 30.8571 31.7417 31.2428 31.7417 32.7857V35.3571C31.7417 35.5714 31.6123 36 31.0946 36H14.2711C14.0554 36 13.624 35.8714 13.624 35.3571V32.7857C13.6239 32.1428 14.0118 30.8571 15.565 30.8571V27.6429L29.8005 27.6428Z" fill="#FFDDFF"/>
<path d="M29.8005 30.8571V27.6428L15.565 27.6429V30.8571M29.8005 30.8571C30.4476 30.8571 31.7417 31.2428 31.7417 32.7857V35.3571C31.7417 35.5714 31.6123 36 31.0946 36H14.2711C14.0554 36 13.624 35.8714 13.624 35.3571V32.7857C13.6239 32.1428 14.0118 30.8571 15.565 30.8571M29.8005 30.8571H15.565" stroke="#FFDDFF" stroke-width="1.5" stroke-linejoin="round"/>
<ellipse cx="15.6883" cy="18.8357" rx="0.841176" ry="0.835717" fill="#FFDDFF"/>
<ellipse cx="28.6298" cy="22.6929" rx="0.841176" ry="0.835717" fill="#FFDDFF"/>
<path d="M19.377 16.7143C21.9652 16.7143 22.3966 14.3572 22.6122 12.8571C22.6122 15.4286 23.2593 16.0714 25.8475 16.7143C23.2593 16.7143 22.8279 18.8572 22.6122 20.5715C22.6122 17.3572 20.6711 16.9286 19.377 16.7143Z" fill="#FFDDFF" stroke="#FFDDFF" stroke-linejoin="round"/>
</svg>
