<svg width="17" height="21" viewBox="0 0 17 21" fill="none" xmlns="http://www.w3.org/2000/svg">
<path d="M16 8.43478V19.1739C16 19.8348 15.4444 20 15.1667 20H1.83333C1.16667 20 1 19.4493 1 19.1739V2.23913C1 1.24783 1.55556 1 1.83333 1H8.5C8.97578 1 9.39497 1.07013 9.75 1.17284M16 8.43478C16 8.02174 15.5833 6.36957 15.1667 5.95652L11 1.82609C10.8213 1.64898 10.3899 1.35798 9.75 1.17284M16 8.43478C16 7.44348 12.6667 7.19565 11 7.19565C10 7.19565 9.75 6.92029 9.75 6.78261V1.17284M5.16667 13.3913L7.66667 15.8696L11.8333 10.5" stroke="#DD93E5" stroke-width="2" stroke-linecap="round" stroke-linejoin="round"/>
</svg>
