<svg width="110" height="110" viewBox="0 0 110 110" fill="none" xmlns="http://www.w3.org/2000/svg">
<rect width="110" height="110" fill="#FFDDFF"/>
<path d="M89.632 110C90.5227 106.825 91 103.47 91 100C91 80.1177 75.33 64 56 64C36.67 64 21 80.1177 21 100C21 103.47 21.4773 106.825 22.368 110H89.632Z" fill="#4E434E"/>
<ellipse cx="55" cy="51.5" rx="28" ry="23.5" fill="#4E434E"/>
<path fill-rule="evenodd" clip-rule="evenodd" d="M75 55.7433C75.3212 54.4609 75.4958 53.0829 75.4958 51.6482C75.4958 51.3698 75.4892 51.0936 75.4763 50.8197L86.5264 45.9946L90.6192 45.4973L94.712 45L91.3624 47.5113L88.0128 50.0226L75 55.7433Z" fill="#4E434E"/>
<path d="M36.4914 19.2687C18.7463 28.2583 24.5238 36.4864 29.6465 37.191C43.2229 23.1903 56.3752 26.4144 58.0723 26.1601C61.7025 13.8731 47.1567 14.2933 38.2819 18.4685C37.5707 15.7784 36.3179 15.4471 35.7804 15.6177C34.4903 16.0271 35.7169 18.2223 36.4914 19.2687Z" fill="#4E434E"/>
<ellipse cx="55" cy="52" rx="18" ry="16" fill="#FFDDFF"/>
<path d="M49.5 52C50.3284 52 51 51.3284 51 50.5C51 49.6716 50.3284 49 49.5 49C48.6716 49 48 49.6716 48 50.5C48 51.3284 48.6716 52 49.5 52Z" fill="#4E434E"/>
<path d="M60.5 52C61.3284 52 62 51.3284 62 50.5C62 49.6716 61.3284 49 60.5 49C59.6716 49 59 49.6716 59 50.5C59 51.3284 59.6716 52 60.5 52Z" fill="#4E434E"/>
<path d="M46.0875 55.4712C46.2413 55.1749 46.9698 54.5403 47.681 54.9093C48.1255 55.1399 48.3519 56.1254 49.3248 55.5886" stroke="#4E434E" stroke-width="3" stroke-linecap="round"/>
<path d="M60.0875 55.4712C60.2413 55.1749 60.9698 54.5403 61.681 54.9093C62.1255 55.1399 62.3519 56.1254 63.3248 55.5886" stroke="#4E434E" stroke-width="3" stroke-linecap="round"/>
</svg>
