<svg width="133" height="130" viewBox="0 0 133 130" fill="none" xmlns="http://www.w3.org/2000/svg">
<path d="M67.9964 37.0234C41.1076 37.0234 19.2998 55.6535 19.2998 78.6359C19.2998 92.8368 27.6282 105.371 40.3378 112.883L36.5095 125.807C36.3591 126.313 36.3627 126.852 36.5197 127.355C36.6768 127.859 36.9802 128.305 37.3916 128.636C37.803 128.968 38.3039 129.17 38.8309 129.218C39.3578 129.266 39.8871 129.156 40.3518 128.904L58.0304 119.39C61.3212 119.961 64.6562 120.241 67.9964 120.227C94.8923 120.227 116.7 101.597 116.7 78.615C116.7 55.6326 94.8923 37.0234 67.9964 37.0234ZM73.1614 106.131C55.6648 106.131 41.4715 94.0016 41.4715 79.0474C41.4715 64.0931 55.6578 51.9637 73.1614 51.9637C90.6651 51.9637 104.858 64.0862 104.858 79.0474C104.858 94.0086 90.6651 106.131 73.1614 106.131Z" fill="#DD93E5"/>
<path d="M65.7008 81.8583C67.4904 81.8583 68.9412 80.4124 68.9412 78.6289C68.9412 76.8453 67.4904 75.3995 65.7008 75.3995C63.9112 75.3995 62.4604 76.8453 62.4604 78.6289C62.4604 80.4124 63.9112 81.8583 65.7008 81.8583Z" fill="#DD93E5"/>
<path d="M86.4586 81.8583C88.2483 81.8583 89.699 80.4124 89.699 78.6289C89.699 76.8453 88.2483 75.3995 86.4586 75.3995C84.669 75.3995 83.2183 76.8453 83.2183 78.6289C83.2183 80.4124 84.669 81.8583 86.4586 81.8583Z" fill="#DD93E5"/>
<path fill-rule="evenodd" clip-rule="evenodd" d="M103.992 90.5614L123.673 81.9091L127.982 78.6788L132.29 75.4485L127.026 76.0882L121.761 76.7279L105 84.0467C104.995 86.3678 104.635 88.5725 103.992 90.5614Z" fill="#DD93E5"/>
<path d="M17.5001 67C4.80267 63.5343 1.86365 41.1836 49.613 24.3386C48.0027 21.4424 45.6299 15.4978 49.0208 14.8893C50.4337 14.6358 53.4867 15.8847 54.3958 22.9086C78.1708 15.2936 118.21 15.6834 105 45.5C107.727 46.5727 106.585 51.5487 105 51.5C56.7492 50.0175 56.0001 67 20.0001 72.4999C18.0559 72.797 15.6571 70.7936 17.5001 67Z" fill="#DD93E5"/>
<path d="M61.6653 86.7002C61.9421 86.1668 63.2534 85.0245 64.5336 85.6887C65.3337 86.1038 65.7413 87.8776 67.4925 86.9114" stroke="#DD93E5" stroke-width="3" stroke-linecap="round"/>
<path d="M85.1575 86.701C85.4343 86.1676 86.7456 85.0253 88.0258 85.6895C88.8259 86.1046 89.2335 87.8784 90.9847 86.9122" stroke="#DD93E5" stroke-width="3" stroke-linecap="round"/>
</svg>
