<svg width="132" height="33" viewBox="0 0 132 33" fill="none" xmlns="http://www.w3.org/2000/svg">
<path fill-rule="evenodd" clip-rule="evenodd" d="M4.43654 9.82377C3.06332 9.9294 0.253517 9.06322 0 4.75344C0.105632 3.16896 1.14082 0 4.43654 0H17.4293C20.5982 0.105632 26.8728 2.59854 26.6192 11.7251C26.6192 15.211 24.7812 22.1827 17.4293 22.1827H9.50687V29.1544C9.6125 30.422 8.99984 32.9572 5.70412 32.9572C4.01401 33.1684 0.633791 32.7036 0.633791 29.1544V19.6475C0.528159 17.4293 1.14082 12.866 4.43654 12.3589C5.07033 12.1477 6.33791 11.535 6.33791 10.7745C6.33791 10.4576 5.95764 9.82377 4.43654 9.82377ZM8.87308 8.87308V13.9434C8.87308 14.1547 9.1266 14.5772 10.1407 14.5772H17.1124C17.9574 14.3659 19.6475 13.4364 19.6475 11.4082C19.6475 10.3519 19.1405 8.23929 17.1124 8.23929H10.1407C9.71813 8.23929 8.87308 8.36605 8.87308 8.87308Z" fill="#4E434E"/>
<path fill-rule="evenodd" clip-rule="evenodd" d="M44.0484 0.0107941C39.0837 -0.20047 29.1543 2.60934 29.1543 15.5387C29.1543 21.4541 32.1331 33.2215 44.0484 32.9679C48.9075 33.2848 58.6256 30.2426 58.6256 15.5387C58.7312 10.3627 55.9637 0.0107941 44.0484 0.0107941ZM43.0977 10.8035C39.9288 10.5923 33.5908 11.4373 33.5908 16.5077C33.5908 18.1978 35.4922 21.578 43.0977 21.578C46.4779 21.4724 53.2384 20.3104 53.2384 16.5077C53.4496 14.6063 51.7173 10.8035 43.0977 10.8035Z" fill="#4E434E"/>
<path fill-rule="evenodd" clip-rule="evenodd" d="M75.7378 0.0107941C70.7731 -0.20047 60.8438 2.60934 60.8438 15.5387C60.8438 21.4541 63.8226 33.2215 75.7378 32.9679C80.5969 33.2848 90.3151 30.2426 90.3151 15.5387C90.4207 10.3627 87.6531 0.0107941 75.7378 0.0107941ZM74.7872 10.8035C71.6182 10.5923 65.2803 11.4373 65.2803 16.5077C65.2803 18.1978 67.1817 21.578 74.7872 21.578C78.1674 21.4724 84.9278 20.3104 84.9278 16.5077C85.1391 14.6063 83.4067 10.8035 74.7872 10.8035Z" fill="#4E434E"/>
<path d="M99.8221 3.81101L103.942 19.022C104.702 21.8298 106.16 22.3045 106.794 22.1909C109.076 21.9374 109.223 19.9727 109.012 19.022L105.209 4.44478C104.449 0.895548 107.85 0.00824703 109.646 0.00825074C112.688 0.00825074 113.871 3.38847 114.083 5.07858L117.885 20.2896C118.392 22.0642 119.787 22.2966 120.42 22.1909C122.195 21.9374 122.427 19.9727 122.322 19.022L121.054 5.07858C120.547 0.7688 124.223 -0.0973812 126.125 0.00825074C131.702 0.00825074 131.617 5.28985 130.878 7.93064L126.125 25.3599C124.603 31.9513 121.054 33.1767 119.47 32.9654C114.653 32.9654 112.604 28.3176 112.181 25.9937C112.181 24.9796 111.759 24.7261 111.547 24.7261C110.787 24.4726 110.385 25.8881 110.28 26.6275C109.012 32.2049 105.526 33.1767 103.942 32.9654C100.899 32.9654 99.294 30.8528 98.8715 29.7964L91.8997 6.34616C90.8856 2.54342 93.1673 0.958947 94.4348 0.642056C97.9841 -0.37201 99.5052 2.33217 99.8221 3.81101Z" fill="#4E434E"/>
</svg>
