<svg width="132" height="33" viewBox="0 0 132 33" fill="none" xmlns="http://www.w3.org/2000/svg">
<path fill-rule="evenodd" clip-rule="evenodd" d="M126.799 23.1762C128.172 23.0706 130.982 23.9368 131.235 28.2466C131.13 29.831 130.095 33 126.799 33H113.806C110.637 32.8944 104.363 30.4015 104.616 21.2749C104.616 17.789 106.454 10.8173 113.806 10.8173H121.728V3.8456C121.623 2.57801 122.236 0.0428467 125.531 0.0428467C127.221 -0.168415 130.602 0.296364 130.602 3.8456V13.3525C130.707 15.5707 130.095 20.134 126.799 20.6411C126.165 20.8523 124.897 21.465 124.897 22.2255C124.897 22.5424 125.278 23.1762 126.799 23.1762ZM122.362 24.1269V19.0566C122.362 18.8453 122.109 18.4228 121.095 18.4228H114.123C113.278 18.6341 111.588 19.5636 111.588 21.5918C111.588 22.6481 112.095 24.7607 114.123 24.7607H121.095C121.517 24.7607 122.362 24.634 122.362 24.1269Z" fill="#DD93E5"/>
<path fill-rule="evenodd" clip-rule="evenodd" d="M87.187 32.9892C92.1517 33.2005 102.081 30.3907 102.081 17.4613C102.081 11.5459 99.1022 -0.221466 87.187 0.0320511C82.3279 -0.284843 72.6098 2.75735 72.6098 17.4613C72.5041 22.6373 75.2717 32.9892 87.187 32.9892ZM88.1376 22.1965C91.3066 22.4077 97.6445 21.5627 97.6445 16.4923C97.6445 14.8022 95.7431 11.422 88.1376 11.422C84.7574 11.5276 77.997 12.6896 77.997 16.4923C77.7857 18.3937 79.5181 22.1965 88.1376 22.1965Z" fill="#DD93E5"/>
<path fill-rule="evenodd" clip-rule="evenodd" d="M55.4975 32.9892C60.4622 33.2005 70.3916 30.3907 70.3916 17.4613C70.3916 11.5459 67.4128 -0.221466 55.4975 0.0320511C50.6384 -0.284843 40.9203 2.75735 40.9203 17.4613C40.8147 22.6373 43.5822 32.9892 55.4975 32.9892ZM56.4482 22.1965C59.6171 22.4077 65.9551 21.5627 65.9551 16.4923C65.9551 14.8022 64.0537 11.422 56.4482 11.422C53.068 11.5276 46.3075 12.6896 46.3075 16.4923C46.0963 18.3937 47.8286 22.1965 56.4482 22.1965Z" fill="#DD93E5"/>
<path d="M31.4133 29.189L27.2936 13.978C26.5332 11.1702 25.0753 10.6955 24.4414 10.8091C22.1597 11.0626 22.0119 13.0273 22.2232 13.978L26.0259 28.5552C26.7865 32.1045 23.3851 32.9918 21.5894 32.9917C18.5472 32.9917 17.3641 29.6115 17.1528 27.9214L13.3501 12.7104C12.8431 10.9358 11.4487 10.7034 10.8149 10.8091C9.04032 11.0626 8.80792 13.0273 8.91356 13.978L10.1811 27.9214C10.6882 32.2312 7.01218 33.0974 5.11081 32.9917C-0.466557 32.9917 -0.38205 27.7102 0.357372 25.0694L5.11081 7.64009C6.63191 1.04866 10.1811 -0.176666 11.7656 0.0345955C16.5824 0.0345955 18.6317 4.6824 19.0542 7.0063C19.0542 8.02037 19.4767 8.27388 19.688 8.27388C20.4486 8.5274 20.85 7.11193 20.9556 6.37251C22.2232 0.795147 25.7091 -0.176666 27.2936 0.0345955C30.3359 0.0345955 31.9414 2.14723 32.3638 3.20355L39.3357 26.6538C40.3497 30.4566 38.0681 32.0411 36.8005 32.3579C33.2513 33.372 31.7302 30.6678 31.4133 29.189Z" fill="#DD93E5"/>
</svg>
