<svg width="144" height="144" viewBox="0 0 144 144" fill="none" xmlns="http://www.w3.org/2000/svg">
<g clip-path="url(#clip0_1174_2446)">
<path d="M71.9964 36.8437C42.5789 36.8437 18.7202 57.0398 18.7202 81.9541C18.7202 97.3488 27.8318 110.936 41.7366 119.08L37.5484 133.091C37.3839 133.639 37.3877 134.223 37.5595 134.769C37.7313 135.315 38.0633 135.798 38.5134 136.157C38.9635 136.517 39.5115 136.736 40.088 136.788C40.6645 136.84 41.2436 136.721 41.7519 136.448L61.0931 126.134C64.6934 126.753 68.342 127.057 71.9964 127.042C101.422 127.042 125.28 106.846 125.28 81.9314C125.28 57.0171 101.422 36.8437 71.9964 36.8437ZM77.6471 111.761C58.5051 111.761 42.977 98.6115 42.977 82.4002C42.977 66.1889 58.4974 53.0399 77.6471 53.0399C96.7968 53.0399 112.325 66.1813 112.325 82.4002C112.325 98.6191 96.7968 111.761 77.6471 111.761Z" fill="#4E434E"/>
<path d="M69.4851 85.4474C71.443 85.4474 73.0302 83.88 73.0302 81.9465C73.0302 80.0131 71.443 78.4457 69.4851 78.4457C67.5271 78.4457 65.9399 80.0131 65.9399 81.9465C65.9399 83.88 67.5271 85.4474 69.4851 85.4474Z" fill="#4E434E"/>
<path d="M92.195 85.4474C94.1529 85.4474 95.7401 83.88 95.7401 81.9465C95.7401 80.0131 94.1529 78.4457 92.195 78.4457C90.2371 78.4457 88.6499 80.0131 88.6499 81.9465C88.6499 83.88 90.2371 85.4474 92.195 85.4474Z" fill="#4E434E"/>
<path d="M19.7125 63.7456C7.01507 60.2799 4.07605 37.9292 51.8254 21.0842C50.2151 18.188 47.8423 12.2434 51.2332 11.6349C52.6461 11.3814 55.6991 12.6303 56.6082 19.6542C80.3832 12.0392 120.422 12.429 107.212 42.2456C109.94 43.3183 108.797 48.2943 107.212 48.2456C58.9616 46.7631 58.2125 63.7456 22.2125 69.2455C20.2683 69.5426 17.8695 67.5392 19.7125 63.7456Z" fill="#4E434E"/>
<path fill-rule="evenodd" clip-rule="evenodd" d="M113 94.1129L132.681 85.4606L136.99 82.2303L141.299 79L136.034 79.6397L130.769 80.2794L114.008 87.5983C114.004 89.9193 113.644 92.1241 113 94.1129Z" fill="#4E434E"/>
<path d="M66.1575 90.701C66.4343 90.1676 67.7456 89.0253 69.0258 89.6895C69.8259 90.1046 70.2335 91.8784 71.9847 90.9122" stroke="#4E434E" stroke-width="3" stroke-linecap="round"/>
<path d="M91.1575 90.701C91.4343 90.1676 92.7456 89.0253 94.0258 89.6895C94.8259 90.1046 95.2335 91.8784 96.9847 90.9122" stroke="#4E434E" stroke-width="3" stroke-linecap="round"/>
</g>
<defs>
<clipPath id="clip0_1174_2446">
<rect width="144" height="144" fill="white"/>
</clipPath>
</defs>
</svg>
