<svg width="100" height="100" viewBox="0 0 100 100" fill="none" xmlns="http://www.w3.org/2000/svg">
<g clip-path="url(#clip0_1212_3330)">
<path fill-rule="evenodd" clip-rule="evenodd" d="M77.2881 61.7433C77.6093 60.4609 77.7839 59.0829 77.7839 57.6482C77.7839 57.3698 77.7773 57.0936 77.7644 56.8197L88.8145 51.9946L92.9073 51.4973L97.0001 51L93.6505 53.5113L90.3009 56.0226L77.2881 61.7433Z" fill="#B3A7B4"/>
<path d="M49.4974 25.586C29.3446 25.586 13 39.6111 13 56.9127C13 67.6034 19.242 77.0392 28.7676 82.6944L25.8984 92.4243C25.7857 92.8049 25.7884 93.2104 25.9061 93.5895C26.0238 93.9686 26.2512 94.3042 26.5595 94.5539C26.8679 94.8035 27.2433 94.956 27.6382 94.9919C28.0332 95.0278 28.4299 94.9456 28.7781 94.7557L42.028 87.5935C44.4944 88.0231 46.9939 88.234 49.4974 88.2236C69.6554 88.2236 86 74.1985 86 56.8969C86 39.5953 69.6554 25.586 49.4974 25.586ZM53.3685 77.6116C40.255 77.6116 29.6174 68.4803 29.6174 57.2225C29.6174 45.9646 40.2498 36.8334 53.3685 36.8334C66.4872 36.8334 77.1248 45.9594 77.1248 57.2225C77.1248 68.4856 66.4872 77.6116 53.3685 77.6116Z" fill="#B3A7B4"/>
<path d="M47.777 59.3385C49.1183 59.3385 50.2056 58.25 50.2056 56.9073C50.2056 55.5647 49.1183 54.4762 47.777 54.4762C46.4357 54.4762 45.3484 55.5647 45.3484 56.9073C45.3484 58.25 46.4357 59.3385 47.777 59.3385Z" fill="#B3A7B4"/>
<path d="M63.3349 59.3385C64.6762 59.3385 65.7635 58.25 65.7635 56.9073C65.7635 55.5647 64.6762 54.4762 63.3349 54.4762C61.9936 54.4762 60.9062 55.5647 60.9062 56.9073C60.9062 58.25 61.9936 59.3385 63.3349 59.3385Z" fill="#B3A7B4"/>
<path d="M12.5805 49.8216C3.02239 47.2128 0.810008 30.388 36.7539 17.7077C35.5417 15.5276 33.7556 11.0527 36.3081 10.5947C37.3717 10.4038 39.6698 11.3439 40.3542 16.6313C58.2511 10.899 88.3908 11.1924 78.4472 33.6372C80.5002 34.4447 79.6401 38.1905 78.4471 38.1538C42.1258 37.0378 41.5618 49.8216 14.4625 53.9617C12.9989 54.1853 11.1932 52.6773 12.5805 49.8216Z" fill="#B3A7B4"/>
<path d="M44.1167 63.0003C44.3216 62.6053 45.2928 61.7593 46.2409 62.2512C46.8334 62.5587 47.1353 63.8723 48.4322 63.1568" stroke="#B3A7B4" stroke-width="3" stroke-linecap="round"/>
<path d="M63.1167 63.0003C63.3216 62.6053 64.2928 61.7593 65.2409 62.2512C65.8334 62.5587 66.1353 63.8723 67.4322 63.1568" stroke="#B3A7B4" stroke-width="3" stroke-linecap="round"/>
</g>
<defs>
<clipPath id="clip0_1212_3330">
<rect width="100" height="100" fill="white"/>
</clipPath>
</defs>
</svg>
